<?xml version="1.0" encoding="UTF-8" standalone="no"?>
<!-- Created with Inkscape (http://www.inkscape.org/) -->

<svg
   xmlns:dc="http://purl.org/dc/elements/1.1/"
   xmlns:cc="http://creativecommons.org/ns#"
   xmlns:rdf="http://www.w3.org/1999/02/22-rdf-syntax-ns#"
   xmlns:svg="http://www.w3.org/2000/svg"
   xmlns="http://www.w3.org/2000/svg"
   xmlns:sodipodi="http://sodipodi.sourceforge.net/DTD/sodipodi-0.dtd"
   xmlns:inkscape="http://www.inkscape.org/namespaces/inkscape"
   width="35.895714"
   height="44.728413"
   id="svg3068"
   version="1.1"
   inkscape:version="0.48.4 r9939"
   sodipodi:docname="arrow.svg">
  <defs
     id="defs3070" />
  <sodipodi:namedview
     id="base"
     pagecolor="#ffffff"
     bordercolor="#666666"
     borderopacity="1.0"
     inkscape:pageopacity="0.0"
     inkscape:pageshadow="2"
     inkscape:zoom="0.35"
     inkscape:cx="17.947857"
     inkscape:cy="22.364207"
     inkscape:document-units="px"
     inkscape:current-layer="layer1"
     showgrid="false"
     fit-margin-top="0"
     fit-margin-left="0"
     fit-margin-right="0"
     fit-margin-bottom="0"
     inkscape:window-width="458"
     inkscape:window-height="417"
     inkscape:window-x="570"
     inkscape:window-y="216"
     inkscape:window-maximized="0" />
  <metadata
     id="metadata3073">
    <rdf:RDF>
      <cc:Work
         rdf:about="">
        <dc:format>image/svg+xml</dc:format>
        <dc:type
           rdf:resource="http://purl.org/dc/dcmitype/StillImage" />
        <dc:title />
      </cc:Work>
    </rdf:RDF>
  </metadata>
  <g
     inkscape:label="Layer 1"
     inkscape:groupmode="layer"
     id="layer1"
     transform="translate(-357.05214,-509.99798)">
    <path
       style="fill:#ffffff"
       d="m 370.08739,549.40981 c -2.73586,-2.92412 -6.91018,-6.8764 -9.27625,-8.78284 -5.11549,-4.12176 -5.00012,-6.90058 0.2865,-6.90058 4.79031,0 5.75914,-1.80231 5.21612,-9.70354 -0.2569,-3.73805 -0.78619,-7.97687 -1.17621,-9.41959 -0.69527,-2.57195 -0.59512,-2.63422 5.13322,-3.19104 3.21327,-0.31236 7.01621,-0.85975 8.45097,-1.21643 3.49173,-0.86805 4.0659,0.74278 4.46647,12.5306 l 0.32283,9.5 4.43805,-0.23114 c 4.05371,-0.21111 4.48073,-0.008 4.93077,2.3463 0.40832,2.136 -0.88844,4.10229 -7.57178,11.48113 -4.43547,4.89704 -8.55542,8.90371 -9.15544,8.90371 -0.60002,0 -3.32938,-2.39246 -6.06525,-5.31658 z m 12.92796,-6.55028 c 4.32062,-5.88585 4.43853,-6.90356 0.84774,-7.31672 -2.69261,-0.30982 -2.77735,-0.52449 -4.06045,-10.2868 -1.41989,-10.80307 -2.21264,-12.52962 -5.75298,-12.52962 -3.29022,0 -3.69186,1.14962 -3.9597,11.33392 -0.22258,8.46342 -0.41344,9.20377 -2.87971,11.17031 l -2.64134,2.10612 5.60007,6.18828 c 6.49023,7.17193 7.11701,7.13946 12.84637,-0.66549 z"
       id="path3036"
       inkscape:connector-curvature="0" />
  </g>
</svg>
