<?xml version="1.0" encoding="UTF-8" standalone="no"?>
<!-- Created with Inkscape (http://www.inkscape.org/) -->

<svg
   xmlns:dc="http://purl.org/dc/elements/1.1/"
   xmlns:cc="http://creativecommons.org/ns#"
   xmlns:rdf="http://www.w3.org/1999/02/22-rdf-syntax-ns#"
   xmlns:svg="http://www.w3.org/2000/svg"
   xmlns="http://www.w3.org/2000/svg"
   xmlns:sodipodi="http://sodipodi.sourceforge.net/DTD/sodipodi-0.dtd"
   xmlns:inkscape="http://www.inkscape.org/namespaces/inkscape"
   width="274.01065"
   height="164.70316"
   id="svg3120"
   version="1.1"
   inkscape:version="0.48.4 r9939"
   sodipodi:docname="donate-icon.svg">
  <defs
     id="defs3122" />
  <sodipodi:namedview
     id="base"
     pagecolor="#ffffff"
     bordercolor="#666666"
     borderopacity="1.0"
     inkscape:pageopacity="0.0"
     inkscape:pageshadow="2"
     inkscape:zoom="0.98994949"
     inkscape:cx="-28.134156"
     inkscape:cy="18.781429"
     inkscape:document-units="px"
     inkscape:current-layer="layer1"
     showgrid="false"
     fit-margin-top="0"
     fit-margin-left="0"
     fit-margin-right="0"
     fit-margin-bottom="0"
     inkscape:window-width="1598"
     inkscape:window-height="849"
     inkscape:window-x="0"
     inkscape:window-y="0"
     inkscape:window-maximized="0" />
  <metadata
     id="metadata3125">
    <rdf:RDF>
      <cc:Work
         rdf:about="">
        <dc:format>image/svg+xml</dc:format>
        <dc:type
           rdf:resource="http://purl.org/dc/dcmitype/StillImage" />
        <dc:title />
      </cc:Work>
    </rdf:RDF>
  </metadata>
  <g
     inkscape:label="Layer 1"
     inkscape:groupmode="layer"
     id="layer1"
     transform="translate(-139.52809,-750.14787)">
    <path
       style="fill:#ffffff"
       d="m 255.02809,913.8142 c -6.23197,-2.46643 -9.87314,-5.19654 -43.457,-32.58359 l -34.45701,-28.09908 -18.79299,0 -18.793,0 0,-29 0,-29 38.45078,0 c 41.21796,0 45.9254,0.43309 52.43765,4.82433 2.18243,1.47162 18.16133,16.75052 35.50866,33.95312 34.12935,33.84459 34.517,34.35234 32.61704,42.72255 -1.72802,7.61278 -10.47789,12.5293 -18.46884,10.37756 -3.24231,-0.87306 -7.34762,-4.37752 -21.27055,-18.15735 -9.48904,-9.39152 -17.38895,-16.88305 -17.55536,-16.64785 -0.16641,0.2352 -1.50736,2.30935 -2.97989,4.60923 l -2.67732,4.18159 17.52657,16.81841 c 19.87684,19.07371 22.76618,20.83224 32.94067,20.04855 3.31618,-0.25543 7.88515,-1.41115 10.15328,-2.56826 4.69811,-2.3968 9.8023,-8.11603 11.55284,-12.94493 l 1.19015,-3.28306 38.70247,0.28306 38.70246,0.28305 4.31521,3.03386 c 10.30362,7.24409 10.07119,22.06316 -0.46858,29.87419 -2.78942,2.06725 -3.5865,2.09413 -67.5,2.27694 -47.94987,0.13714 -65.45312,-0.12208 -67.67724,-1.00232 z"
       id="path3138"
       inkscape:connector-curvature="0" />
    <path
       style="fill:#ffffff"
       d="m 335.64136,861.02395 c -28.38229,-17.7559 -49.5314,-39.81855 -56.55966,-59.00276 -1.62459,-4.43445 -2.19325,-8.32634 -2.25731,-15.44882 -0.0794,-8.8306 0.15272,-10.00516 3.20113,-16.19736 7.19676,-14.6187 21.86415,-22.09639 38.67271,-19.716 8.21941,1.16401 15.66806,4.80435 21.59301,10.55305 l 4.55247,4.41704 4.57656,-4.38512 c 15.22005,-14.58337 39.41035,-14.82343 53.70085,-0.53293 10.72889,10.72889 13.32079,26.57343 7.07688,43.26176 -6.774,18.10516 -28.84189,40.51866 -57.04316,57.93654 -4.17117,2.57623 -7.815,4.68405 -8.09741,4.68405 -0.28241,0 -4.51964,-2.50625 -9.41607,-5.56945 z m 15.39545,-13.06158 c 14.61209,-9.30503 33.72061,-26.7992 41.03777,-37.57076 7.30839,-10.75867 10.13526,-22.16526 7.60486,-30.68606 -2.19017,-7.37508 -8.38764,-13.45945 -15.94851,-15.65745 -10.12302,-2.94284 -19.67989,0.64206 -31.01671,11.63476 -4.33564,4.20404 -7.80644,6.82401 -8.48474,6.4048 -0.6313,-0.39017 -3.02498,-2.75958 -5.31927,-5.26536 -9.61158,-10.49758 -21.92127,-15.56793 -31.95291,-13.16137 -6.90953,1.65757 -14.72275,9.25764 -16.66041,16.20589 -5.01095,17.96884 12.27895,43.03627 45.16153,65.47658 5.03709,3.4375 9.31992,6.25 9.51739,6.25 0.19747,0 2.92492,-1.63396 6.061,-3.63103 z"
       id="path3136"
       inkscape:connector-curvature="0" />
  </g>
</svg>
