<?xml version="1.0" encoding="UTF-8" standalone="no"?>
<!-- Created with Inkscape (http://www.inkscape.org/) -->

<svg
   xmlns:dc="http://purl.org/dc/elements/1.1/"
   xmlns:cc="http://creativecommons.org/ns#"
   xmlns:rdf="http://www.w3.org/1999/02/22-rdf-syntax-ns#"
   xmlns:svg="http://www.w3.org/2000/svg"
   xmlns="http://www.w3.org/2000/svg"
   xmlns:sodipodi="http://sodipodi.sourceforge.net/DTD/sodipodi-0.dtd"
   xmlns:inkscape="http://www.inkscape.org/namespaces/inkscape"
   width="326.98944"
   height="287.37469"
   id="svg2"
   version="1.1"
   inkscape:version="0.48.4 r9939"
   sodipodi:docname="mission-icon.svg">
  <defs
     id="defs4" />
  <sodipodi:namedview
     id="base"
     pagecolor="#ffffff"
     bordercolor="#666666"
     borderopacity="1.0"
     inkscape:pageopacity="0.0"
     inkscape:pageshadow="2"
     inkscape:zoom="0.98994949"
     inkscape:cx="240.11289"
     inkscape:cy="178.15207"
     inkscape:document-units="px"
     inkscape:current-layer="layer1"
     showgrid="false"
     fit-margin-top="0"
     fit-margin-left="0"
     fit-margin-right="0"
     fit-margin-bottom="0"
     inkscape:window-width="1600"
     inkscape:window-height="853"
     inkscape:window-x="0"
     inkscape:window-y="0"
     inkscape:window-maximized="1" />
  <metadata
     id="metadata7">
    <rdf:RDF>
      <cc:Work
         rdf:about="">
        <dc:format>image/svg+xml</dc:format>
        <dc:type
           rdf:resource="http://purl.org/dc/dcmitype/StillImage" />
        <dc:title></dc:title>
      </cc:Work>
    </rdf:RDF>
  </metadata>
  <g
     inkscape:label="Layer 1"
     inkscape:groupmode="layer"
     id="layer1"
     transform="translate(-195.33312,-373.8562)">
    <path
       style="fill:#ffffff"
       d="m 352.32741,659.46742 c -7.12527,-3.29889 -12.5,-11.08329 -12.5,-18.10414 0,-6.99726 2.49984,-9.92857 43.2747,-50.74398 l 40.204,-40.24398 -3.73947,-3.73947 -3.73947,-3.73948 -40.74988,40.65467 c -36.25291,36.16821 -41.23132,40.78132 -45.1125,41.80233 -15.56189,4.09379 -29.74993,-12.01202 -23.58436,-26.77221 1.04865,-2.51045 14.52954,-16.72062 41.50978,-43.75539 l 39.95675,-40.0375 -4.02507,-3.93038 -4.02508,-3.93039 -39.7347,39.61181 c -21.85408,21.7865 -41.28774,40.39292 -43.1859,41.34762 -4.22439,2.12468 -12.74419,2.20235 -16.70853,0.15231 -9.87146,-5.10473 -14.19646,-17.2715 -9.40798,-26.4658 1.06276,-2.04059 18.77354,-20.51871 39.35729,-41.06249 l 37.425,-37.35233 4.7731,3.64339 c 7.40488,5.65228 10.98252,6.86797 20.51232,6.97014 7.2579,0.0778 9.34063,-0.30282 14.25264,-2.60476 8.06927,-3.78153 15.8569,-11.45972 19.35374,-19.08174 2.37397,-5.17451 2.85798,-7.56958 2.87416,-14.22237 0.0332,-13.64136 -0.83445,-15.02752 -24.13089,-38.5523 l -20.35281,-20.55231 3.25158,-3.05273 c 8.25526,-7.75041 23.14593,-15.4981 36.68175,-19.08571 13.20967,-3.50116 33.33919,-3.70047 46.37118,-0.45914 16.27126,4.047 29.78119,11.56738 42.57181,23.69783 12.68905,12.03412 21.76319,27.24721 26.24726,44.00436 3.14328,11.74659 3.16992,32.58545 0.0575,44.99308 -2.94759,11.75056 -10.33076,26.9974 -17.95625,37.08113 -8.69801,11.50198 -129.31552,131.10942 -134.66865,133.54091 -5.15229,2.34026 -9.98219,2.33674 -15.05303,-0.011 z m -107,-106.50462 c -3.9539,-1.7426 -8.449,-6.31635 -10.14,-10.3174 -1.79389,-4.2445 -1.72923,-11.70177 0.13553,-15.63146 0.82254,-1.73337 18.59563,-20.24725 39.49576,-41.14196 l 38.00024,-37.99036 14.0084,13.98159 14.00841,13.9816 -36.25417,36.30289 c -19.93979,19.96659 -38.24382,37.63325 -40.67562,39.25924 -3.61054,2.41415 -5.44455,2.94916 -10,2.9172 -3.0682,-0.0215 -6.92855,-0.63413 -8.57855,-1.36134 z m -25.62289,-21.76275 c -10.36185,-12.25024 -18.35783,-27.61229 -22.06765,-42.39683 -3.09942,-12.35188 -3.06686,-33.21692 0.0701,-44.93994 7.26544,-27.15128 26.74982,-50.1424 52.62664,-62.09822 12.60762,-5.82508 22.79877,-7.81846 39.49378,-7.72493 11.3618,0.0636 16.18462,0.53327 22.28378,2.16992 9.93514,2.66598 23.18066,8.86983 31.05974,14.54754 9.02172,6.50111 54.20139,52.25899 56.10554,56.82357 3.9005,9.3502 0.80799,22.44507 -7.07953,29.97741 -8.11907,7.75346 -20.68414,10.17331 -29.65937,5.71194 -2.70545,-1.34481 -16.44061,-14.28812 -38.4308,-36.21521 l -34.22065,-34.12245 -3.05378,2.9257 -3.05378,2.92571 11.51939,11.54948 11.51939,11.54948 -38.04013,37.99003 c -20.92207,20.89452 -38.94391,39.43215 -40.04853,41.19474 -1.10462,1.76258 -2.57128,5.96413 -3.25923,9.33677 l -1.25083,6.13206 -4.5141,-5.33677 z"
       id="path2996"
       inkscape:connector-curvature="0" />
  </g>
</svg>
